<svg width="24" height="24" viewBox="0 0 24 24" fill="none" xmlns="http://www.w3.org/2000/svg">
<path d="M11.25 22.5H9.75V17.25C9.7494 16.6534 9.51216 16.0815 9.09033 15.6597C8.6685 15.2378 8.09655 15.0006 7.5 15H4.5C3.90345 15.0006 3.3315 15.2378 2.90967 15.6597C2.48784 16.0815 2.2506 16.6534 2.25 17.25V22.5H0.75V17.25C0.751191 16.2558 1.14666 15.3027 1.84966 14.5997C2.55267 13.8967 3.5058 13.5012 4.5 13.5H7.5C8.4942 13.5012 9.44733 13.8967 10.1503 14.5997C10.8533 15.3027 11.2488 16.2558 11.25 17.25V22.5ZM6 6C6.44501 6 6.88002 6.13196 7.25003 6.37919C7.62004 6.62643 7.90843 6.97783 8.07873 7.38896C8.24903 7.8001 8.29358 8.2525 8.20677 8.68895C8.11995 9.12541 7.90566 9.52632 7.59099 9.84099C7.27632 10.1557 6.87541 10.37 6.43895 10.4568C6.0025 10.5436 5.5501 10.499 5.13896 10.3287C4.72783 10.1584 4.37643 9.87004 4.12919 9.50003C3.88196 9.13002 3.75 8.69501 3.75 8.25C3.75 7.65326 3.98705 7.08097 4.40901 6.65901C4.83097 6.23705 5.40326 6 6 6ZM6 4.5C5.25832 4.5 4.5333 4.71993 3.91661 5.13199C3.29993 5.54404 2.81928 6.12971 2.53545 6.81494C2.25162 7.50016 2.17736 8.25416 2.32206 8.98159C2.46675 9.70902 2.8239 10.3772 3.34835 10.9017C3.8728 11.4261 4.54098 11.7833 5.26841 11.9279C5.99584 12.0726 6.74984 11.9984 7.43506 11.7145C8.12029 11.4307 8.70596 10.9501 9.11801 10.3334C9.53007 9.7167 9.75 8.99168 9.75 8.25C9.75 7.25544 9.35491 6.30161 8.65165 5.59835C7.94839 4.89509 6.99456 4.5 6 4.5Z" fill="#A0A0A0"/>
<path d="M10.5 12H13.5L15.5 6.5L18.5 16.5L20.5 10H24" stroke="#A0A0A0" stroke-width="1.5" stroke-linejoin="round"/>
</svg>
