<svg width="24" height="24" viewBox="0 0 24 24" fill="none" xmlns="http://www.w3.org/2000/svg">
<path d="M20.25 12.57V11.4225L21.69 10.1625C21.9555 9.92854 22.1296 9.60827 22.1818 9.2583C22.2339 8.90833 22.1607 8.55119 21.975 8.25L20.205 5.25C20.0735 5.0222 19.8844 4.83299 19.6566 4.70135C19.4289 4.56971 19.1705 4.50027 18.9075 4.5C18.7445 4.49875 18.5824 4.52408 18.4275 4.575L16.605 5.19C16.2903 4.98091 15.9621 4.79299 15.6225 4.6275L15.24 2.7375C15.1714 2.3922 14.9836 2.08203 14.7093 1.86128C14.4351 1.64052 14.092 1.52325 13.74 1.53H10.23C9.87803 1.52325 9.53489 1.64052 9.26067 1.86128C8.98644 2.08203 8.79859 2.3922 8.73001 2.7375L8.34751 4.6275C8.00546 4.79295 7.67473 4.98086 7.35751 5.19L5.57251 4.545C5.41598 4.50422 5.25389 4.48902 5.09251 4.5C4.82946 4.50027 4.57111 4.56971 4.34338 4.70135C4.11564 4.83299 3.92653 5.0222 3.79501 5.25L2.02501 8.25C1.84995 8.55074 1.7849 8.90299 1.84099 9.24642C1.89709 9.58985 2.07085 9.9031 2.33251 10.1325L3.75001 11.43V12.5775L2.33251 13.8375C2.06346 14.0685 1.88495 14.3873 1.82866 14.7375C1.77236 15.0876 1.84193 15.4463 2.02501 15.75L3.79501 18.75C3.92653 18.9778 4.11564 19.167 4.34338 19.2987C4.57111 19.4303 4.82946 19.4997 5.09251 19.5C5.25552 19.5012 5.41764 19.4759 5.57251 19.425L7.39501 18.81C7.70966 19.0191 8.03789 19.207 8.37751 19.3725L8.76001 21.2625C8.82859 21.6078 9.01644 21.918 9.29067 22.1387C9.56489 22.3595 9.90803 22.4767 10.26 22.47H13.8C14.152 22.4767 14.4951 22.3595 14.7693 22.1387C15.0436 21.918 15.2314 21.6078 15.3 21.2625L15.6825 19.3725C16.0246 19.2071 16.3553 19.0191 16.6725 18.81L18.4875 19.425C18.6424 19.4759 18.8045 19.5012 18.9675 19.5C19.2306 19.4997 19.4889 19.4303 19.7166 19.2987C19.9444 19.167 20.1335 18.9778 20.265 18.75L21.975 15.75C22.1501 15.4493 22.2151 15.097 22.159 14.7536C22.1029 14.4101 21.9292 14.0969 21.6675 13.8675L20.25 12.57ZM18.9075 18L16.335 17.13C15.7328 17.6401 15.0446 18.0388 14.3025 18.3075L13.77 21H10.23L9.69751 18.3375C8.96132 18.0612 8.27679 17.6631 7.67251 17.16L5.09251 18L3.32251 15L5.36251 13.2C5.22383 12.4236 5.22383 11.6289 5.36251 10.8525L3.32251 9L5.09251 6L7.66501 6.87C8.26721 6.35992 8.95546 5.96119 9.69751 5.6925L10.23 3H13.77L14.3025 5.6625C15.0387 5.93882 15.7232 6.33686 16.3275 6.84L18.9075 6L20.6775 9L18.6375 10.8C18.7762 11.5764 18.7762 12.3711 18.6375 13.1475L20.6775 15L18.9075 18Z" fill="#3D5AF1"/>
<path d="M12 16.5C11.11 16.5 10.24 16.2361 9.49994 15.7416C8.75991 15.2471 8.18314 14.5443 7.84254 13.7221C7.50195 12.8998 7.41283 11.995 7.58647 11.1221C7.7601 10.2492 8.18868 9.44736 8.81802 8.81802C9.44736 8.18868 10.2492 7.7601 11.1221 7.58647C11.995 7.41283 12.8998 7.50195 13.7221 7.84254C14.5443 8.18314 15.2471 8.75991 15.7416 9.49994C16.2361 10.24 16.5 11.11 16.5 12C16.506 12.5926 16.3937 13.1805 16.1697 13.7292C15.9457 14.2779 15.6145 14.7763 15.1954 15.1954C14.7763 15.6145 14.2779 15.9457 13.7292 16.1697C13.1805 16.3937 12.5926 16.506 12 16.5ZM12 9C11.6035 8.99077 11.2093 9.06205 10.8411 9.20954C10.473 9.35704 10.1386 9.57768 9.85812 9.85812C9.57768 10.1386 9.35704 10.473 9.20954 10.8411C9.06205 11.2093 8.99077 11.6035 9 12C8.99077 12.3965 9.06205 12.7907 9.20954 13.1589C9.35704 13.527 9.57768 13.8615 9.85812 14.1419C10.1386 14.4223 10.473 14.643 10.8411 14.7905C11.2093 14.938 11.6035 15.0092 12 15C12.3965 15.0092 12.7907 14.938 13.1589 14.7905C13.527 14.643 13.8615 14.4223 14.1419 14.1419C14.4223 13.8615 14.643 13.527 14.7905 13.1589C14.938 12.7907 15.0092 12.3965 15 12C15.0092 11.6035 14.938 11.2093 14.7905 10.8411C14.643 10.473 14.4223 10.1386 14.1419 9.85812C13.8615 9.57768 13.527 9.35704 13.1589 9.20954C12.7907 9.06205 12.3965 8.99077 12 9Z" fill="#3D5AF1"/>
</svg>
