<svg width="24" height="24" viewBox="0 0 24 24" fill="none" xmlns="http://www.w3.org/2000/svg">
<path d="M20.25 12.57V11.4225L21.69 10.1625C21.9554 9.92854 22.1296 9.60827 22.1818 9.2583C22.2339 8.90833 22.1607 8.55119 21.975 8.25L20.205 5.25C20.0735 5.0222 19.8843 4.83299 19.6566 4.70135C19.4289 4.56971 19.1705 4.50027 18.9075 4.5C18.7445 4.49875 18.5823 4.52408 18.4275 4.575L16.605 5.19C16.2903 4.98091 15.9621 4.79299 15.6225 4.6275L15.24 2.7375C15.1714 2.3922 14.9836 2.08203 14.7093 1.86128C14.4351 1.64052 14.092 1.52325 13.74 1.53H10.23C9.87801 1.52325 9.53487 1.64052 9.26064 1.86128C8.98641 2.08203 8.79857 2.3922 8.72998 2.7375L8.34748 4.6275C8.00543 4.79295 7.67471 4.98086 7.35748 5.19L5.57248 4.545C5.41596 4.50422 5.25386 4.48902 5.09248 4.5C4.82944 4.50027 4.57109 4.56971 4.34336 4.70135C4.11562 4.83299 3.92651 5.0222 3.79498 5.25L2.02498 8.25C1.84992 8.55074 1.78487 8.90299 1.84097 9.24642C1.89707 9.58985 2.07083 9.9031 2.33248 10.1325L3.74998 11.43V12.5775L2.33248 13.8375C2.06343 14.0685 1.88492 14.3873 1.82863 14.7375C1.77234 15.0876 1.84191 15.4463 2.02498 15.75L3.79498 18.75C3.92651 18.9778 4.11562 19.167 4.34336 19.2987C4.57109 19.4303 4.82944 19.4997 5.09248 19.5C5.2555 19.5012 5.41762 19.4759 5.57248 19.425L7.39498 18.81C7.70964 19.0191 8.03786 19.207 8.37748 19.3725L8.75998 21.2625C8.82857 21.6078 9.01641 21.918 9.29064 22.1387C9.56487 22.3595 9.90801 22.4767 10.26 22.47H13.8C14.152 22.4767 14.4951 22.3595 14.7693 22.1387C15.0436 21.918 15.2314 21.6078 15.3 21.2625L15.6825 19.3725C16.0245 19.2071 16.3553 19.0191 16.6725 18.81L18.4875 19.425C18.6423 19.4759 18.8045 19.5012 18.9675 19.5C19.2305 19.4997 19.4889 19.4303 19.7166 19.2987C19.9443 19.167 20.1335 18.9778 20.265 18.75L21.975 15.75C22.15 15.4493 22.2151 15.097 22.159 14.7536C22.1029 14.4101 21.9291 14.0969 21.6675 13.8675L20.25 12.57ZM18.9075 18L16.335 17.13C15.7328 17.6401 15.0445 18.0388 14.3025 18.3075L13.77 21H10.23L9.69748 18.3375C8.9613 18.0612 8.27677 17.6631 7.67248 17.16L5.09248 18L3.32248 15L5.36248 13.2C5.22381 12.4236 5.22381 11.6289 5.36248 10.8525L3.32248 9L5.09248 6L7.66498 6.87C8.26719 6.35992 8.95544 5.96119 9.69748 5.6925L10.23 3H13.77L14.3025 5.6625C15.0387 5.93882 15.7232 6.33686 16.3275 6.84L18.9075 6L20.6775 9L18.6375 10.8C18.7762 11.5764 18.7762 12.3711 18.6375 13.1475L20.6775 15L18.9075 18Z" fill="#A0A0A0"/>
<path d="M12 16.5C11.11 16.5 10.2399 16.2361 9.49992 15.7416C8.7599 15.2471 8.18312 14.5443 7.84253 13.7221C7.50193 12.8998 7.41282 11.995 7.58645 11.1221C7.76009 10.2492 8.18867 9.44736 8.81801 8.81802C9.44734 8.18868 10.2492 7.7601 11.1221 7.58647C11.995 7.41283 12.8998 7.50195 13.7221 7.84254C14.5443 8.18314 15.2471 8.75991 15.7416 9.49994C16.2361 10.24 16.5 11.11 16.5 12C16.506 12.5926 16.3937 13.1805 16.1697 13.7292C15.9457 14.2779 15.6144 14.7763 15.1954 15.1954C14.7763 15.6145 14.2778 15.9457 13.7292 16.1697C13.1805 16.3937 12.5926 16.506 12 16.5ZM12 9C11.6035 8.99077 11.2093 9.06205 10.8411 9.20954C10.4729 9.35704 10.1385 9.57768 9.8581 9.85812C9.57766 10.1386 9.35702 10.473 9.20953 10.8411C9.06203 11.2093 8.99075 11.6035 8.99999 12C8.99075 12.3965 9.06203 12.7907 9.20953 13.1589C9.35702 13.527 9.57766 13.8615 9.8581 14.1419C10.1385 14.4223 10.4729 14.643 10.8411 14.7905C11.2093 14.938 11.6035 15.0092 12 15C12.3965 15.0092 12.7907 14.938 13.1589 14.7905C13.527 14.643 13.8614 14.4223 14.1419 14.1419C14.4223 13.8615 14.6429 13.527 14.7904 13.1589C14.9379 12.7907 15.0092 12.3965 15 12C15.0092 11.6035 14.9379 11.2093 14.7904 10.8411C14.6429 10.473 14.4223 10.1386 14.1419 9.85812C13.8614 9.57768 13.527 9.35704 13.1589 9.20954C12.7907 9.06205 12.3965 8.99077 12 9Z" fill="#A0A0A0"/>
</svg>
